<svg width="160" height="140" viewBox="0 0 160 140" fill="none" xmlns="http://www.w3.org/2000/svg">
<path d="M76.7621 130.515V101.649H94.6556V104.825H79.9675V114.474H92.7486V117.649H79.9675V130.515H76.7621Z" fill="#706E7A"/>
<path d="M99.7174 130.515V100H102.801V130.515H99.7174Z" fill="#706E7A"/>
<path d="M117.766 130.928C115.683 130.928 113.817 130.447 112.167 129.485C110.544 128.495 109.259 127.162 108.312 125.485C107.365 123.78 106.892 121.842 106.892 119.67C106.892 117.526 107.365 115.615 108.312 113.938C109.259 112.234 110.544 110.9 112.167 109.938C113.817 108.976 115.683 108.495 117.766 108.495C119.849 108.495 121.702 108.976 123.325 109.938C124.975 110.9 126.26 112.234 127.179 113.938C128.126 115.615 128.599 117.526 128.599 119.67C128.599 121.842 128.126 123.78 127.179 125.485C126.26 127.162 124.975 128.495 123.325 129.485C121.702 130.447 119.849 130.928 117.766 130.928ZM117.766 127.959C119.254 127.959 120.566 127.601 121.702 126.887C122.865 126.172 123.771 125.196 124.42 123.959C125.069 122.694 125.394 121.265 125.394 119.67C125.394 118.076 125.069 116.674 124.42 115.464C123.771 114.227 122.865 113.251 121.702 112.536C120.566 111.821 119.254 111.464 117.766 111.464C116.278 111.464 114.953 111.821 113.79 112.536C112.626 113.251 111.72 114.227 111.071 115.464C110.422 116.701 110.097 118.103 110.097 119.67C110.097 121.265 110.422 122.694 111.071 123.959C111.72 125.196 112.626 126.172 113.79 126.887C114.953 127.601 116.278 127.959 117.766 127.959Z" fill="#706E7A"/>
<path d="M137.278 130.515L129.893 108.948H133.18L138.414 125.031L144.054 112.289H145.92L151.479 124.825L156.754 108.948H160L152.656 130.515H150.83L144.906 116.701L139.144 130.515H137.278Z" fill="#706E7A"/>
<path d="M0 130.515V101.65H11.9696C13.6467 101.65 15.148 102.062 16.4734 102.887C17.8259 103.684 18.8944 104.784 19.6788 106.186C20.4903 107.56 20.8961 109.113 20.8961 110.845C20.8961 112.632 20.4903 114.241 19.6788 115.67C18.8944 117.072 17.8259 118.199 16.4734 119.052C15.148 119.876 13.6467 120.289 11.9696 120.289H5.84279V130.515H0ZM5.80222 114.887H11.361C12.3618 114.887 13.2004 114.515 13.8766 113.773C14.5799 113.003 14.9316 112.055 14.9316 110.928C14.9316 109.801 14.5799 108.88 13.8766 108.165C13.2004 107.423 12.3618 107.052 11.361 107.052H5.80222V114.887Z" fill="#FF941A"/>
<path d="M33.2157 130.928C31.4304 130.928 29.8209 130.433 28.3872 129.443C26.9536 128.454 25.804 127.107 24.9384 125.402C24.0998 123.698 23.6805 121.759 23.6805 119.588C23.6805 117.361 24.0998 115.409 24.9384 113.732C25.804 112.028 26.9671 110.694 28.4278 109.732C29.9156 108.77 31.5927 108.289 33.4591 108.289C34.9739 108.289 36.2994 108.605 37.4355 109.237C38.5716 109.842 39.4777 110.639 40.154 111.629V108.742H45.6722V130.515H40.1134V127.588C39.356 128.55 38.3687 129.347 37.1514 129.979C35.9612 130.612 34.6493 130.928 33.2157 130.928ZM34.7169 126.021C36.367 126.021 37.706 125.43 38.7339 124.247C39.7618 123.065 40.2757 121.512 40.2757 119.588C40.2757 117.663 39.7618 116.11 38.7339 114.928C37.706 113.746 36.367 113.155 34.7169 113.155C33.0939 113.155 31.7685 113.746 30.7406 114.928C29.7397 116.11 29.2393 117.663 29.2393 119.588C29.2393 121.512 29.7397 123.065 30.7406 124.247C31.7685 125.43 33.0939 126.021 34.7169 126.021Z" fill="#FF941A"/>
<path d="M54.0598 140L58.0361 130.639L48.2981 108.742H54.5872L60.0243 121.773C60.2677 122.351 60.5112 123.024 60.7546 123.794C60.8628 123.491 60.9575 123.203 61.0387 122.928C61.1469 122.625 61.2551 122.309 61.3633 121.979L66.0294 108.742H72.3996L63.392 130.515L59.6997 140H54.0598Z" fill="#FF941A"/>
<path d="M54 10H57V58H54V10Z" fill="#B1B0B8"/>
<path d="M48 10H51V58H48V10Z" fill="#B1B0B8"/>
<path d="M67 10H69V58H67V10Z" fill="#B1B0B8"/>
<path d="M72 10H76V58H72V10Z" fill="#B1B0B8"/>
<path d="M39 10H44V58H39V10Z" fill="#B1B0B8"/>
<path d="M60 10H65V58H60V10Z" fill="#B1B0B8"/>
<path d="M110 58H106V10H110V58Z" fill="#B1B0B8"/>
<path d="M115 58H113V10H115V58Z" fill="#B1B0B8"/>
<path d="M95 58H93V10H95V58Z" fill="#B1B0B8"/>
<path d="M82 58H80V10H82V58Z" fill="#B1B0B8"/>
<path d="M90 58H86V10H90V58Z" fill="#B1B0B8"/>
<path d="M123 58H119V10H123V58Z" fill="#B1B0B8"/>
<path d="M103 58H98V10H103V58Z" fill="#B1B0B8"/>
<path d="M131 32V36H30V32H131Z" fill="#585666"/>
<path fill-rule="evenodd" clip-rule="evenodd" d="M30 0H28V2V12H30V2L40 2V0H30Z" fill="#FF941A"/>
<path fill-rule="evenodd" clip-rule="evenodd" d="M131 68L133 68L133 66L133 56L131 56L131 66L121 66L121 68L131 68Z" fill="#FF941A"/>
<path fill-rule="evenodd" clip-rule="evenodd" d="M133 2L133 0L131 -8.74228e-08L121 -5.24537e-07L121 2L131 2L131 12L133 12L133 2Z" fill="#FF941A"/>
<path fill-rule="evenodd" clip-rule="evenodd" d="M28 66L28 68L30 68L40 68L40 66L30 66L30 56L28 56L28 66Z" fill="#FF941A"/>
</svg>
