<svg width="48" height="48" viewBox="0 0 48 48" fill="none" xmlns="http://www.w3.org/2000/svg">
  <defs>
    <linearGradient id="payflow-gradient" x1="0%" y1="0%" x2="100%" y2="100%">
      <stop offset="0%" style="stop-color:#6C5CE7;stop-opacity:1" />
      <stop offset="100%" style="stop-color:#A29BFE;stop-opacity:1" />
    </linearGradient>
  </defs>
  
  <!-- Background Circle -->
  <circle cx="24" cy="24" r="22" fill="url(#payflow-gradient)" stroke="#fff" stroke-width="2"/>
  
  <!-- Dollar Sign -->
  <path d="M24 8v4M24 36v4" stroke="#fff" stroke-width="2.5" stroke-linecap="round"/>
  
  <!-- S Shape for Dollar -->
  <path d="M18 16c0-3.314 2.686-6 6-6s6 2.686 6 6c0 2.21-1.79 4-4 4h-4c-2.21 0-4 1.79-4 4s1.79 4 4 4h4c2.21 0 4-1.79 4-4" 
        stroke="#fff" stroke-width="2.5" stroke-linecap="round" fill="none"/>
  
  <!-- Flow Lines -->
  <path d="M12 18l3-2M33 18l3 2M12 30l3 2M33 30l3-2" 
        stroke="#fff" stroke-width="1.5" stroke-linecap="round" opacity="0.7"/>
</svg>
